<svg width="130" height="72" viewBox="0 0 130 72" fill="none" xmlns="http://www.w3.org/2000/svg">
<path d="M92.3416 6.58744C92.9466 4.576 93.9194 2.98362 95.2531 1.81029C96.5902 0.603428 98.0643 0 99.6788 0H130L122.399 24.8412C121.794 26.8526 120.824 28.4617 119.487 29.6686C118.154 30.8419 116.68 31.4286 115.065 31.4286H113.1L116.957 44H106.748L102.928 31.4286H95.0258L92.0775 40.9828C91.8001 41.888 91.3455 42.6256 90.7171 43.1956C90.1121 43.732 89.4435 44 88.7115 44H81L92.3416 6.58744ZM98.92 18.656H113.176C113.454 18.656 113.705 18.5554 113.932 18.3543C114.183 18.1532 114.36 17.885 114.46 17.5497L115.934 12.7223H101.681C101.053 12.7223 100.611 13.1078 100.357 13.8788L98.92 18.656Z" fill="#ED2840"/>
<path d="M52.1482 6.58744C52.7409 4.576 53.679 2.98362 54.963 1.81029C56.2718 0.603428 57.7286 0 59.3334 0H89L81.5555 24.8412C80.9628 26.8526 80.0123 28.4617 78.7038 29.6686C77.4199 30.8419 75.9752 31.4286 74.3703 31.4286H54.7409L51.8889 40.9828C51.6174 41.888 51.1731 42.6256 50.5555 43.1956C49.9632 43.732 49.3086 44 48.5928 44H41L52.1482 6.58744ZM72.5186 18.656C72.7901 18.656 73.037 18.5554 73.2593 18.3543C73.5062 18.1532 73.6791 17.885 73.7777 17.5497L75.2224 12.7223H61.2594C60.6667 12.7223 60.247 13.1078 60.0001 13.8788L58.5557 18.656H72.5186Z" fill="#ED2840"/>
<path d="M2.88876 34.3452C3.16054 33.44 3.6049 32.7192 4.22214 32.1828C4.81482 31.613 5.46904 31.328 6.18517 31.328H28.7038L29.9262 27.2046H5.03713L11.2223 6.48684C11.5186 5.51468 11.9011 4.62628 12.3703 3.82172C12.8641 3.01714 13.4198 2.32991 14.0371 1.76C14.6792 1.1901 15.358 0.754284 16.0741 0.452572C16.8148 0.150857 17.5679 0 18.3335 0H48L45.1112 9.65484C44.8395 10.56 44.3951 11.2975 43.7779 11.8674C43.1852 12.4038 42.531 12.672 41.8148 12.672H19.2962L18.0742 16.7954H42.9632L38.6297 31.328L36.778 37.4126C36.1604 39.424 35.1978 41.0332 33.8889 42.24C32.605 43.4132 31.1727 44 29.5928 44H0L2.88876 34.3452Z" fill="#ED2840"/>
<path d="M24.7617 60.4253L26.8903 54.0947C27.0023 53.7609 27.1797 53.495 27.4225 53.297C27.6652 53.099 27.9359 53 28.2347 53H33.8362L31.7217 59.3136C31.6096 59.6531 31.4299 59.9246 31.1825 60.1283C30.9351 60.3263 30.662 60.4253 30.3633 60.4253H29.474L30.4263 57.591H27.5905L26.8063 59.9162C26.7549 60.0689 26.6709 60.1934 26.5542 60.2895C26.4422 60.3801 26.3162 60.4253 26.1761 60.4253H24.7617ZM30.8814 55.8344C30.9654 55.8344 31.0238 55.7863 31.0565 55.6901L31.2455 55.1385H28.5428C28.4587 55.1385 28.4004 55.1866 28.3677 55.2828L28.1787 55.8344H30.8814Z" fill="black"/>
<path d="M32.1741 60.4253L34.2887 54.1117C34.4007 53.7722 34.5804 53.5035 34.8278 53.3055C35.0752 53.1018 35.3483 53 35.6471 53H36.5433L34.7718 58.2783H39.4841L39.141 59.3136C39.029 59.6531 38.8493 59.9246 38.6019 60.1283C38.3545 60.3263 38.0791 60.4253 37.7757 60.4253H32.1741Z" fill="black"/>
<path d="M39.5179 60.4253L41.6325 54.1117C41.7446 53.7722 41.9243 53.5035 42.1717 53.3055C42.4191 53.1018 42.6922 53 42.9909 53H43.8871L42.1157 58.2783H46.828L46.4849 59.3136C46.3728 59.6531 46.1931 59.9246 45.9457 60.1283C45.6983 60.3263 45.4229 60.4253 45.1195 60.4253H39.5179Z" fill="black"/>
<path d="M53.4757 54.1117C53.5877 53.7722 53.7674 53.5035 54.0148 53.3055C54.2622 53.1018 54.5353 53 54.834 53H55.7303L53.6157 59.3136C53.5037 59.6531 53.3239 59.9246 53.0765 60.1283C52.8291 60.3263 52.5537 60.4253 52.2503 60.4253H51.3541L53.4757 54.1117Z" fill="black"/>
<path d="M54.1669 60.4253L56.2885 54.0947C56.3445 53.9306 56.4168 53.7807 56.5055 53.6449C56.5989 53.5092 56.7039 53.3932 56.8206 53.297C56.942 53.2008 57.0704 53.1273 57.2057 53.0764C57.3458 53.0255 57.4881 53 57.6328 53H63.2414L61.1198 59.3136C61.0078 59.6531 60.8281 59.9246 60.5807 60.1283C60.3333 60.3263 60.0602 60.4253 59.7614 60.4253H58.8722L60.6437 55.1385H57.9409C57.8569 55.1385 57.7985 55.1866 57.7659 55.2828L56.2184 59.9162C56.1671 60.0689 56.0854 60.1934 55.9734 60.2895C55.8613 60.3801 55.7376 60.4253 55.6023 60.4253H55.5883H54.1669Z" fill="black"/>
<path d="M66.7271 58.796C66.7785 58.6432 66.8625 58.5216 66.9792 58.4311C67.0912 58.3349 67.2149 58.2868 67.3503 58.2868H71.6075L71.8385 57.591H67.1332L68.3025 54.0947C68.3586 53.9306 68.4309 53.7807 68.5196 53.6449C68.613 53.5092 68.718 53.3932 68.8347 53.297C68.9561 53.2008 69.0844 53.1273 69.2198 53.0764C69.3598 53.0255 69.5022 53 69.6469 53H75.2555L74.7093 54.6293C74.658 54.7821 74.574 54.9065 74.4573 55.0027C74.3452 55.0932 74.2215 55.1385 74.0862 55.1385H69.829L69.5979 55.8344H74.3032L73.484 58.2868L73.1339 59.3136C73.0172 59.6531 72.8351 59.9246 72.5877 60.1283C72.345 60.3263 72.0743 60.4253 71.7755 60.4253H66.181L66.7271 58.796Z" fill="black"/>
<path d="M75.794 54.1117C75.9061 53.7722 76.0834 53.5035 76.3262 53.3055C76.5736 53.1018 76.849 53 77.1524 53H82.761L81.3536 57.1921C81.2415 57.5316 81.0618 57.8031 80.8144 58.0068C80.5717 58.2048 80.2986 58.3038 79.9952 58.3038H76.2842L75.745 59.9162C75.6937 60.0689 75.6096 60.1934 75.4929 60.2895C75.3809 60.3801 75.2572 60.4253 75.1218 60.4253H73.6864L75.794 54.1117ZM79.6451 56.1483C79.6964 56.1483 79.7431 56.1314 79.7851 56.0974C79.8318 56.0635 79.8645 56.0182 79.8832 55.9616L80.1562 55.147H77.5165C77.4045 55.147 77.3251 55.212 77.2784 55.3422L77.0054 56.1483H79.6451Z" fill="black"/>
<path d="M83.2157 54.1117C83.3277 53.7722 83.5075 53.5035 83.7548 53.3055C84.0023 53.1018 84.2753 53 84.5741 53H90.1686L88.054 59.3136C87.942 59.6531 87.7623 59.9246 87.5149 60.1283C87.2675 60.3263 86.9944 60.4253 86.6957 60.4253H81.1011L83.2157 54.1117ZM83.6638 58.2868H86.3036C86.3782 58.2868 86.4436 58.2614 86.4996 58.2105C86.5603 58.1595 86.6046 58.0945 86.6326 58.0153L87.6059 55.1385H84.9662C84.8075 55.1385 84.6978 55.2262 84.6371 55.4016L83.6638 58.2868Z" fill="black"/>
<path d="M90.7165 54.1117C90.8285 53.7722 91.0082 53.5035 91.2556 53.3055C91.503 53.1018 91.7761 53 92.0749 53H97.6904L96.283 57.1921C96.171 57.5316 95.9913 57.8031 95.7439 58.0068C95.4965 58.2048 95.2234 58.3038 94.9246 58.3038H94.5605L95.2747 60.4253H93.3842L92.677 58.3038H91.2136L90.6675 59.9162C90.6161 60.0689 90.5321 60.1934 90.4154 60.2895C90.3034 60.3801 90.1797 60.4253 90.0443 60.4253H88.6159L90.7165 54.1117ZM91.9348 56.1483H94.5745C94.6259 56.1483 94.6726 56.1314 94.7146 56.0974C94.7613 56.0635 94.7939 56.0182 94.8126 55.9616L95.0857 55.147H92.446C92.3293 55.147 92.2476 55.212 92.2009 55.3422L91.9348 56.1483Z" fill="black"/>
<path d="M97.9279 55.147L98.271 54.1117C98.383 53.7722 98.5627 53.5035 98.8101 53.3055C99.0575 53.1018 99.3306 53 99.6293 53H105.238L104.888 54.0353C104.776 54.3747 104.596 54.6463 104.349 54.85C104.106 55.048 103.833 55.147 103.529 55.147H102.311L100.911 59.3136C100.799 59.6531 100.619 59.9246 100.372 60.1283C100.124 60.3263 99.8511 60.4253 99.5523 60.4253H98.6561L100.428 55.147H97.9279Z" fill="black"/>
<path d="M14.7008 65.0156C14.752 64.8637 14.8312 64.7428 14.9384 64.6528C15.0502 64.5628 15.1736 64.5178 15.3087 64.5178H16.7412L15.7909 67.3529L15.7979 67.3698L18.1318 64.7034C18.2436 64.5797 18.3717 64.5178 18.5161 64.5178H20.8291L17.0906 68.7873C17.1093 68.8211 17.1861 68.9505 17.3212 69.1755C17.3771 69.2767 17.4493 69.4033 17.5378 69.5552C17.631 69.7014 17.7405 69.8843 17.8663 70.1036C17.9967 70.323 18.1504 70.5818 18.3275 70.8799C18.5045 71.1724 18.7071 71.5128 18.9354 71.9009H16.8181L15.1899 69.1333L14.4423 71.3862C14.391 71.5437 14.3072 71.6703 14.1907 71.7659C14.0789 71.8559 13.9531 71.9009 13.8134 71.9009H12.3809L14.7008 65.0156Z" fill="black"/>
<path d="M21.5279 64.9903C21.5791 64.8328 21.663 64.709 21.7794 64.619C21.8959 64.5234 22.024 64.4756 22.1637 64.4756H23.5823L22.7158 67.0491H25.2663C25.3548 67.0491 25.434 67.021 25.5039 66.9648C25.5738 66.9085 25.625 66.8326 25.6576 66.7369L26.2516 64.9819C26.3028 64.8244 26.3844 64.7006 26.4962 64.6106C26.6126 64.5206 26.7384 64.4756 26.8735 64.4756H28.2711L27.1111 67.9267C26.9993 68.2642 26.8199 68.5342 26.573 68.7367C26.3261 68.9336 26.0536 69.032 25.7555 69.032H24.5326L23.75 71.344C23.6987 71.5015 23.6149 71.6281 23.4984 71.7237C23.3866 71.8137 23.2632 71.8587 23.1281 71.8587H21.7025L22.6529 69.032H20.1652L21.5279 64.9903Z" fill="black"/>
<path d="M28.8076 65.6231C28.9194 65.2856 29.0987 65.0184 29.3456 64.8215C29.5925 64.619 29.8651 64.5178 30.1632 64.5178H35.7674L34.3629 68.6861C34.2511 69.0236 34.0717 69.2936 33.8248 69.4961C33.5779 69.693 33.3054 69.7914 33.0072 69.7914H32.6439L33.3566 71.9009H31.4699L30.7642 69.7914H29.3037L28.7587 71.3946C28.7074 71.5465 28.6236 71.6703 28.5071 71.7659C28.3953 71.8559 28.2719 71.9009 28.1368 71.9009H26.7113L28.8076 65.6231ZM30.0235 67.6482H32.6579C32.7091 67.6482 32.7557 67.6313 32.7976 67.5976C32.8442 67.5638 32.8768 67.5188 32.8954 67.4626L33.168 66.6526H30.5336C30.4171 66.6526 30.3356 66.7172 30.289 66.8466L30.0235 67.6482Z" fill="black"/>
<path d="M36.4516 65.5303C36.5727 65.2209 36.7498 64.9762 36.9827 64.7962C37.2203 64.6106 37.4811 64.5178 37.7653 64.5178H43.3625L43.0131 65.5472C42.9013 65.8791 42.722 66.1463 42.4751 66.3488C42.2282 66.5457 41.9556 66.6441 41.6575 66.6441H38.1706C38.1054 66.6441 38.0472 66.6666 37.9959 66.7116C37.9493 66.751 37.9051 66.7988 37.8631 66.8551C37.8492 66.8888 37.8072 67.0126 37.7374 67.2263C37.7048 67.3163 37.6652 67.4317 37.6186 67.5723C37.572 67.7129 37.5138 67.8873 37.4439 68.0954C37.374 68.2979 37.2901 68.537 37.1923 68.8126C37.0991 69.0883 36.992 69.4089 36.8709 69.7746H39.2817C39.4168 69.7746 39.5425 69.7296 39.659 69.6396C39.7755 69.5439 39.8593 69.4202 39.9106 69.2683C39.9199 69.2345 39.9292 69.2036 39.9385 69.1755C39.9525 69.1417 39.9641 69.1108 39.9734 69.0827H38.8484C38.9416 68.8014 39.0208 68.5595 39.086 68.357C39.1559 68.1545 39.2141 67.9857 39.2607 67.8507C39.3119 67.6932 39.3935 67.5695 39.5053 67.4795C39.6217 67.3838 39.7475 67.336 39.8826 67.336H42.4052L41.2382 70.7955C41.1264 71.1331 40.9471 71.4031 40.7002 71.6056C40.4579 71.8025 40.1854 71.9009 39.8826 71.9009H34.3064C34.707 70.714 35.0634 69.6536 35.3755 68.7198L36.4516 65.5303Z" fill="black"/>
<path d="M44.0607 64.9903C44.1119 64.8328 44.1958 64.709 44.3123 64.619C44.4287 64.5234 44.5568 64.4756 44.6966 64.4756H46.1151L45.2486 67.0491H47.7992C47.8877 67.0491 47.9669 67.021 48.0367 66.9648C48.1066 66.9085 48.1579 66.8326 48.1905 66.7369L48.7844 64.9819C48.8357 64.8244 48.9172 64.7006 49.029 64.6106C49.1455 64.5206 49.2712 64.4756 49.4063 64.4756H50.8039L49.6439 67.9267C49.5321 68.2642 49.3528 68.5342 49.1059 68.7367C48.859 68.9336 48.5864 69.032 48.2883 69.032H47.0654L46.2828 71.344C46.2316 71.5015 46.1477 71.6281 46.0312 71.7237C45.9194 71.8137 45.796 71.8587 45.6609 71.8587H44.2354L45.1857 69.032H42.6981L44.0607 64.9903Z" fill="black"/>
<path d="M49.4957 70.5593C49.5795 70.3062 49.696 70.0755 49.845 69.8674C49.9941 69.6592 50.1665 69.4821 50.3621 69.3358L54.0936 66.6441H50.9281L51.2775 65.6063C51.3334 65.4431 51.4056 65.2941 51.4942 65.1591C51.5873 65.024 51.6921 64.9087 51.8086 64.8131C51.9297 64.7175 52.0578 64.6443 52.1929 64.5937C52.3327 64.5431 52.4748 64.5178 52.6192 64.5178H58.2164L57.6853 66.0872C57.5642 66.4641 57.3592 66.751 57.0704 66.9479L53.1642 69.7746H56.3297L55.9873 70.7955C55.8755 71.1331 55.6961 71.4031 55.4492 71.6056C55.2023 71.8025 54.9298 71.9009 54.6317 71.9009H49.0414L49.4957 70.5593Z" fill="black"/>
<path d="M63.2415 65.6231C63.3533 65.2856 63.5326 65.0184 63.7795 64.8215C64.0264 64.619 64.299 64.5178 64.5971 64.5178H70.2013L68.7968 68.6861C68.685 69.0236 68.5056 69.2936 68.2587 69.4961C68.0118 69.693 67.7393 69.7914 67.4411 69.7914H67.0778L67.7905 71.9009H65.9038L65.1981 69.7914H63.7376L63.1926 71.3946C63.1413 71.5465 63.0575 71.6703 62.941 71.7659C62.8292 71.8559 62.7058 71.9009 62.5707 71.9009H61.1451L63.2415 65.6231ZM64.4574 67.6482H67.0917C67.143 67.6482 67.1896 67.6313 67.2315 67.5976C67.2781 67.5638 67.3107 67.5188 67.3293 67.4626L67.6019 66.6526H64.9675C64.851 66.6526 64.7695 66.7172 64.7229 66.8466L64.4574 67.6482Z" fill="black"/>
<path d="M68.6424 71.9009C68.6424 71.9009 68.6727 71.8109 68.7333 71.6309C68.7938 71.4453 68.8754 71.2034 68.9778 70.9052C69.0757 70.6071 69.1898 70.2696 69.3202 69.8927C69.446 69.5102 69.5765 69.1192 69.7116 68.7198C69.8467 68.3204 69.9771 67.9323 70.1029 67.5554C70.2333 67.1729 70.3474 66.8326 70.4453 66.5344C70.5478 66.2307 70.6293 65.9888 70.6898 65.8088C70.7551 65.6231 70.7877 65.5303 70.7877 65.5303C70.9088 65.2209 71.0858 64.9762 71.3187 64.7962C71.5563 64.6106 71.8172 64.5178 72.1014 64.5178H77.6986L77.3492 65.5472C77.2374 65.8791 77.058 66.1463 76.8111 66.3488C76.5642 66.5457 76.2917 66.6441 75.9936 66.6441H72.5067C72.3483 66.6441 72.2365 66.7341 72.1713 66.9141L72.0245 67.336H75.0083L74.589 68.568C74.5378 68.7255 74.4539 68.852 74.3375 68.9477C74.2257 69.0377 74.0999 69.0827 73.9601 69.0827H71.6821C71.5237 69.0827 71.4119 69.1727 71.3467 69.3527L71.2069 69.7746H75.9167L75.5743 70.7955C75.4625 71.1331 75.2831 71.4031 75.0362 71.6056C74.7893 71.8025 74.5168 71.9009 74.2187 71.9009H68.6424Z" fill="black"/>
<path d="M78.2383 65.6231C78.3501 65.2856 78.5272 65.0184 78.7694 64.8215C79.0163 64.619 79.2912 64.5178 79.594 64.5178H85.1912L83.7866 68.6861C83.6748 69.0236 83.4955 69.2936 83.2486 69.4961C83.0063 69.693 82.7338 69.7914 82.431 69.7914H78.7275L78.1894 71.3946C78.1382 71.5465 78.0543 71.6703 77.9379 71.7659C77.8261 71.8559 77.7026 71.9009 77.5675 71.9009H76.135L78.2383 65.6231ZM82.0816 67.6482C82.1329 67.6482 82.1794 67.6313 82.2214 67.5976C82.268 67.5638 82.3006 67.5188 82.3192 67.4626L82.5917 66.6526H79.9573C79.8455 66.6526 79.7663 66.7172 79.7197 66.8466L79.4472 67.6482H82.0816Z" fill="black"/>
<path d="M85.6799 65.5303C85.8011 65.2209 85.9781 64.9762 86.211 64.7962C86.4486 64.6106 86.7095 64.5178 86.9936 64.5178H87.8741L86.0922 69.7746H88.7336C88.8035 69.7746 88.8664 69.7521 88.9223 69.7071C88.9828 69.6564 89.0271 69.5889 89.055 69.5046L90.5714 65.024C90.6226 64.8722 90.7041 64.7512 90.8159 64.6612C90.9324 64.5656 91.0582 64.5178 91.1933 64.5178H92.5908L90.4735 70.7955C90.3617 71.1331 90.1824 71.4031 89.9355 71.6056C89.6886 71.8025 89.4161 71.9009 89.1179 71.9009H83.5347C83.9353 70.714 84.2917 69.6564 84.6038 68.7283C84.7389 68.3289 84.8694 67.9379 84.9951 67.5554C85.1256 67.1729 85.242 66.8326 85.3445 66.5344C85.447 66.2363 85.5285 65.9944 85.5891 65.8088C85.6497 65.6231 85.6799 65.5303 85.6799 65.5303Z" fill="black"/>
<path d="M93.0794 65.5303C93.1958 65.2209 93.3729 64.9762 93.6105 64.7962C93.848 64.6106 94.1089 64.5178 94.3931 64.5178H99.9833L99.0749 67.2095C98.9724 67.5132 98.8094 67.7551 98.5857 67.9351C98.3621 68.1151 98.1152 68.2051 97.845 68.2051H97.7402C97.8613 68.2051 97.9685 68.2389 98.0617 68.3064C98.1595 68.3739 98.2364 68.4611 98.2923 68.568C98.3528 68.6692 98.3901 68.7873 98.4041 68.9223C98.418 69.0517 98.4041 69.1839 98.3621 69.3189L97.866 70.7955C97.7542 71.1331 97.5749 71.4031 97.328 71.6056C97.0811 71.8025 96.8085 71.9009 96.5104 71.9009H90.9272C91.3278 70.714 91.6865 69.6536 92.0033 68.7198L93.0794 65.5303ZM93.4917 69.7746H96.0981C96.1167 69.7746 96.1377 69.7746 96.161 69.7746C96.1843 69.7689 96.2052 69.7605 96.2239 69.7493C96.2379 69.7436 96.2565 69.7324 96.2798 69.7155C96.3077 69.693 96.3287 69.6733 96.3427 69.6564C96.3706 69.6283 96.3962 69.5861 96.4195 69.5299C96.4242 69.5242 96.4265 69.5214 96.4265 69.5214C96.4265 69.5158 96.4289 69.5102 96.4335 69.5046L96.5733 69.0827H93.9738C93.8154 69.0827 93.7036 69.1727 93.6384 69.3527L93.4917 69.7746ZM96.9227 67.336H96.9716C96.9855 67.336 96.9972 67.3332 97.0065 67.3276C97.0205 67.322 97.0321 67.3163 97.0415 67.3107C97.0508 67.3051 97.0601 67.3023 97.0694 67.3023C97.0787 67.2966 97.088 67.291 97.0974 67.2854C97.1206 67.2741 97.1486 67.2488 97.1812 67.2095C97.2138 67.1645 97.2348 67.1279 97.2441 67.0998C97.2441 67.0885 97.2441 67.0829 97.2441 67.0829C97.2488 67.0773 97.2511 67.0716 97.2511 67.066L97.3978 66.6441H94.7914C94.6377 66.6441 94.5282 66.7341 94.463 66.9141L94.3162 67.336H96.9227Z" fill="black"/>
<path d="M98.5315 71.9009L100.642 65.6231C100.754 65.2856 100.933 65.0184 101.18 64.8215C101.427 64.619 101.699 64.5178 101.997 64.5178H102.892L101.124 69.7661H105.827L105.484 70.7955C105.373 71.1331 105.193 71.4031 104.946 71.6056C104.699 71.8025 104.425 71.9009 104.122 71.9009H98.5315Z" fill="black"/>
<path d="M107.971 65.6231C108.083 65.2856 108.262 65.0184 108.509 64.8215C108.756 64.619 109.028 64.5178 109.326 64.5178H110.221L108.111 70.7955C107.999 71.1331 107.819 71.4031 107.573 71.6056C107.326 71.8025 107.051 71.9009 106.748 71.9009H105.854L107.971 65.6231Z" fill="black"/>
<path d="M108.563 71.9009C108.563 71.9009 108.593 71.8109 108.654 71.6309C108.714 71.4453 108.796 71.2034 108.898 70.9052C108.996 70.6071 109.11 70.2696 109.241 69.8927C109.366 69.5102 109.497 69.1192 109.632 68.7198C109.767 68.3204 109.897 67.9323 110.023 67.5554C110.154 67.1729 110.268 66.8326 110.366 66.5344C110.468 66.2307 110.55 65.9888 110.61 65.8088C110.675 65.6231 110.708 65.5303 110.708 65.5303C110.829 65.2209 111.006 64.9762 111.239 64.7962C111.477 64.6106 111.738 64.5178 112.022 64.5178H117.619L117.27 65.5472C117.158 65.8791 116.978 66.1463 116.732 66.3488C116.485 66.5457 116.212 66.6441 115.914 66.6441H112.427C112.269 66.6441 112.157 66.7341 112.092 66.9141L111.127 69.7746H115.837L115.495 70.7955C115.383 71.1331 115.204 71.4031 114.957 71.6056C114.71 71.8025 114.437 71.9009 114.139 71.9009H108.563Z" fill="black"/>
</svg>
