<svg width="130" height="72" viewBox="0 0 130 72" fill="none" xmlns="http://www.w3.org/2000/svg">
<path d="M92.3416 6.58744C92.9466 4.576 93.9194 2.98362 95.2531 1.81029C96.5902 0.603428 98.0643 0 99.6788 0H130L122.399 24.8412C121.794 26.8526 120.824 28.4617 119.487 29.6686C118.154 30.8419 116.68 31.4286 115.065 31.4286H113.1L116.957 44H106.748L102.928 31.4286H95.0258L92.0775 40.9828C91.8001 41.888 91.3455 42.6256 90.7171 43.1956C90.1121 43.732 89.4435 44 88.7115 44H81L92.3416 6.58744ZM98.92 18.656H113.176C113.454 18.656 113.705 18.5554 113.932 18.3543C114.183 18.1532 114.36 17.885 114.46 17.5497L115.934 12.7223H101.681C101.053 12.7223 100.611 13.1078 100.357 13.8788L98.92 18.656Z" fill="#ED2840"/>
<path d="M52.1482 6.58744C52.7409 4.576 53.679 2.98362 54.963 1.81029C56.2718 0.603428 57.7286 0 59.3334 0H89L81.5555 24.8412C80.9628 26.8526 80.0123 28.4617 78.7038 29.6686C77.4199 30.8419 75.9752 31.4286 74.3703 31.4286H54.7409L51.8889 40.9828C51.6174 41.888 51.1731 42.6256 50.5555 43.1956C49.9632 43.732 49.3086 44 48.5928 44H41L52.1482 6.58744ZM72.5186 18.656C72.7901 18.656 73.037 18.5554 73.2593 18.3543C73.5062 18.1532 73.6791 17.885 73.7777 17.5497L75.2224 12.7223H61.2594C60.6667 12.7223 60.247 13.1078 60.0001 13.8788L58.5557 18.656H72.5186Z" fill="#ED2840"/>
<path d="M2.88876 34.3452C3.16054 33.44 3.6049 32.7192 4.22214 32.1828C4.81482 31.613 5.46904 31.328 6.18517 31.328H28.7038L29.9262 27.2046H5.03713L11.2223 6.48684C11.5186 5.51468 11.9011 4.62628 12.3703 3.82172C12.8641 3.01714 13.4198 2.32991 14.0371 1.76C14.6792 1.1901 15.358 0.754284 16.0741 0.452572C16.8148 0.150857 17.5679 0 18.3335 0H48L45.1112 9.65484C44.8395 10.56 44.3951 11.2975 43.7779 11.8674C43.1852 12.4038 42.531 12.672 41.8148 12.672H19.2962L18.0742 16.7954H42.9632L38.6297 31.328L36.778 37.4126C36.1604 39.424 35.1978 41.0332 33.8889 42.24C32.605 43.4132 31.1727 44 29.5928 44H0L2.88876 34.3452Z" fill="#ED2840"/>
<path d="M24.7618 60.4253L26.8904 54.0947C27.0025 53.7609 27.1798 53.495 27.4226 53.297C27.6653 53.099 27.9361 53 28.2348 53H33.8364L31.7218 59.3136C31.6097 59.6531 31.43 59.9246 31.1826 60.1283C30.9352 60.3263 30.6621 60.4253 30.3634 60.4253H29.4741L30.4264 57.591H27.5906L26.8064 59.9162C26.7551 60.0689 26.671 60.1934 26.5543 60.2895C26.4423 60.3801 26.3163 60.4253 26.1762 60.4253H24.7618ZM30.8815 55.8344C30.9656 55.8344 31.0239 55.7863 31.0566 55.6901L31.2456 55.1385H28.5429C28.4589 55.1385 28.4005 55.1866 28.3678 55.2828L28.1788 55.8344H30.8815Z" fill="white"/>
<path d="M32.1742 60.4253L34.2888 54.1117C34.4008 53.7722 34.5806 53.5035 34.828 53.3055C35.0754 53.1018 35.3484 53 35.6472 53H36.5434L34.7719 58.2783H39.4842L39.1412 59.3136C39.0291 59.6531 38.8494 59.9246 38.602 60.1283C38.3546 60.3263 38.0792 60.4253 37.7758 60.4253H32.1742Z" fill="white"/>
<path d="M39.5181 60.4253L41.6326 54.1117C41.7447 53.7722 41.9244 53.5035 42.1718 53.3055C42.4192 53.1018 42.6923 53 42.991 53H43.8873L42.1158 58.2783H46.8281L46.485 59.3136C46.373 59.6531 46.1932 59.9246 45.9458 60.1283C45.6984 60.3263 45.423 60.4253 45.1196 60.4253H39.5181Z" fill="white"/>
<path d="M53.4758 54.1117C53.5878 53.7722 53.7675 53.5035 54.0149 53.3055C54.2623 53.1018 54.5354 53 54.8342 53H55.7304L53.6158 59.3136C53.5038 59.6531 53.3241 59.9246 53.0767 60.1283C52.8293 60.3263 52.5539 60.4253 52.2504 60.4253H51.3542L53.4758 54.1117Z" fill="white"/>
<path d="M54.167 60.4253L56.2886 54.0947C56.3446 53.9306 56.417 53.7807 56.5056 53.6449C56.599 53.5092 56.704 53.3932 56.8207 53.297C56.9421 53.2008 57.0705 53.1273 57.2058 53.0764C57.3459 53.0255 57.4883 53 57.633 53H63.2415L61.1199 59.3136C61.0079 59.6531 60.8282 59.9246 60.5808 60.1283C60.3334 60.3263 60.0603 60.4253 59.7616 60.4253H58.8723L60.6438 55.1385H57.941C57.857 55.1385 57.7987 55.1866 57.766 55.2828L56.2186 59.9162C56.1672 60.0689 56.0855 60.1934 55.9735 60.2895C55.8615 60.3801 55.7378 60.4253 55.6024 60.4253H55.5884H54.167Z" fill="white"/>
<path d="M66.7272 58.796C66.7786 58.6432 66.8626 58.5216 66.9793 58.4311C67.0913 58.3349 67.215 58.2868 67.3504 58.2868H71.6076L71.8386 57.591H67.1333L68.3027 54.0947C68.3587 53.9306 68.431 53.7807 68.5197 53.6449C68.6131 53.5092 68.7181 53.3932 68.8348 53.297C68.9562 53.2008 69.0845 53.1273 69.2199 53.0764C69.36 53.0255 69.5023 53 69.647 53H75.2556L74.7094 54.6293C74.6581 54.7821 74.5741 54.9065 74.4574 55.0027C74.3453 55.0932 74.2216 55.1385 74.0863 55.1385H69.8291L69.598 55.8344H74.3033L73.4841 58.2868L73.134 59.3136C73.0173 59.6531 72.8353 59.9246 72.5879 60.1283C72.3451 60.3263 72.0744 60.4253 71.7756 60.4253H66.1811L66.7272 58.796Z" fill="white"/>
<path d="M75.7941 54.1117C75.9062 53.7722 76.0836 53.5035 76.3263 53.3055C76.5737 53.1018 76.8491 53 77.1525 53H82.7611L81.3537 57.1921C81.2417 57.5316 81.0619 57.8031 80.8145 58.0068C80.5718 58.2048 80.2987 58.3038 79.9953 58.3038H76.2843L75.7451 59.9162C75.6938 60.0689 75.6098 60.1934 75.4931 60.2895C75.381 60.3801 75.2573 60.4253 75.122 60.4253H73.6866L75.7941 54.1117ZM79.6452 56.1483C79.6966 56.1483 79.7432 56.1314 79.7853 56.0974C79.8319 56.0635 79.8646 56.0182 79.8833 55.9616L80.1564 55.147H77.5166C77.4046 55.147 77.3252 55.212 77.2786 55.3422L77.0055 56.1483H79.6452Z" fill="white"/>
<path d="M83.2158 54.1117C83.3279 53.7722 83.5076 53.5035 83.755 53.3055C84.0024 53.1018 84.2754 53 84.5742 53H90.1687L88.0542 59.3136C87.9421 59.6531 87.7624 59.9246 87.515 60.1283C87.2676 60.3263 86.9945 60.4253 86.6958 60.4253H81.1012L83.2158 54.1117ZM83.6639 58.2868H86.3037C86.3784 58.2868 86.4437 58.2614 86.4997 58.2105C86.5604 58.1595 86.6048 58.0945 86.6328 58.0153L87.606 55.1385H84.9663C84.8076 55.1385 84.6979 55.2262 84.6372 55.4016L83.6639 58.2868Z" fill="white"/>
<path d="M90.7166 54.1117C90.8286 53.7722 91.0083 53.5035 91.2558 53.3055C91.5032 53.1018 91.7762 53 92.075 53H97.6905L96.2831 57.1921C96.1711 57.5316 95.9914 57.8031 95.744 58.0068C95.4966 58.2048 95.2235 58.3038 94.9248 58.3038H94.5607L95.2749 60.4253H93.3843L92.6771 58.3038H91.2137L90.6676 59.9162C90.6162 60.0689 90.5322 60.1934 90.4155 60.2895C90.3035 60.3801 90.1798 60.4253 90.0444 60.4253H88.616L90.7166 54.1117ZM91.9349 56.1483H94.5747C94.626 56.1483 94.6727 56.1314 94.7147 56.0974C94.7614 56.0635 94.7941 56.0182 94.8127 55.9616L95.0858 55.147H92.4461C92.3294 55.147 92.2477 55.212 92.201 55.3422L91.9349 56.1483Z" fill="white"/>
<path d="M97.928 55.147L98.2711 54.1117C98.3831 53.7722 98.5628 53.5035 98.8102 53.3055C99.0576 53.1018 99.3307 53 99.6295 53H105.238L104.888 54.0353C104.776 54.3747 104.596 54.6463 104.349 54.85C104.106 55.048 103.833 55.147 103.53 55.147H102.311L100.911 59.3136C100.799 59.6531 100.619 59.9246 100.372 60.1283C100.124 60.3263 99.8512 60.4253 99.5525 60.4253H98.6562L100.428 55.147H97.928Z" fill="white"/>
<path d="M14.7009 65.0156C14.7522 64.8637 14.8314 64.7428 14.9385 64.6528C15.0503 64.5628 15.1738 64.5178 15.3089 64.5178H16.7414L15.791 67.3529L15.798 67.3698L18.1319 64.7034C18.2437 64.5797 18.3718 64.5178 18.5162 64.5178H20.8292L17.0907 68.7873C17.1094 68.8211 17.1862 68.9505 17.3213 69.1755C17.3772 69.2767 17.4494 69.4033 17.538 69.5552C17.6311 69.7014 17.7406 69.8843 17.8664 70.1036C17.9968 70.323 18.1506 70.5818 18.3276 70.8799C18.5046 71.1724 18.7072 71.5128 18.9355 71.9009H16.8182L15.1901 69.1333L14.4424 71.3862C14.3911 71.5437 14.3073 71.6703 14.1908 71.7659C14.079 71.8559 13.9532 71.9009 13.8135 71.9009H12.381L14.7009 65.0156Z" fill="white"/>
<path d="M21.528 64.9903C21.5792 64.8328 21.6631 64.709 21.7795 64.619C21.896 64.5234 22.0241 64.4756 22.1639 64.4756H23.5824L22.7159 67.0491H25.2664C25.3549 67.0491 25.4341 67.021 25.504 66.9648C25.5739 66.9085 25.6251 66.8326 25.6578 66.7369L26.2517 64.9819C26.303 64.8244 26.3845 64.7006 26.4963 64.6106C26.6127 64.5206 26.7385 64.4756 26.8736 64.4756H28.2712L27.1112 67.9267C26.9994 68.2642 26.8201 68.5342 26.5731 68.7367C26.3262 68.9336 26.0537 69.032 25.7556 69.032H24.5327L23.7501 71.344C23.6988 71.5015 23.615 71.6281 23.4985 71.7237C23.3867 71.8137 23.2633 71.8587 23.1282 71.8587H21.7027L22.653 69.032H20.1654L21.528 64.9903Z" fill="white"/>
<path d="M28.8077 65.6231C28.9195 65.2856 29.0989 65.0184 29.3458 64.8215C29.5927 64.619 29.8652 64.5178 30.1633 64.5178H35.7675L34.363 68.6861C34.2512 69.0236 34.0718 69.2936 33.8249 69.4961C33.578 69.693 33.3055 69.7914 33.0074 69.7914H32.644L33.3568 71.9009H31.4701L30.7643 69.7914H29.3038L28.7588 71.3946C28.7076 71.5465 28.6237 71.6703 28.5072 71.7659C28.3954 71.8559 28.272 71.9009 28.1369 71.9009H26.7114L28.8077 65.6231ZM30.0236 67.6482H32.658C32.7092 67.6482 32.7558 67.6313 32.7977 67.5976C32.8443 67.5638 32.8769 67.5188 32.8956 67.4626L33.1681 66.6526H30.5337C30.4172 66.6526 30.3357 66.7172 30.2891 66.8466L30.0236 67.6482Z" fill="white"/>
<path d="M36.4517 65.5303C36.5729 65.2209 36.7499 64.9762 36.9828 64.7962C37.2204 64.6106 37.4813 64.5178 37.7654 64.5178H43.3626L43.0133 65.5472C42.9014 65.8791 42.7221 66.1463 42.4752 66.3488C42.2283 66.5457 41.9558 66.6441 41.6576 66.6441H38.1707C38.1055 66.6441 38.0473 66.6666 37.996 66.7116C37.9494 66.751 37.9052 66.7988 37.8633 66.8551C37.8493 66.8888 37.8074 67.0126 37.7375 67.2263C37.7049 67.3163 37.6653 67.4317 37.6187 67.5723C37.5721 67.7129 37.5139 67.8873 37.444 68.0954C37.3741 68.2979 37.2903 68.537 37.1924 68.8126C37.0993 69.0883 36.9921 69.4089 36.871 69.7746H39.2818C39.4169 69.7746 39.5427 69.7296 39.6591 69.6396C39.7756 69.5439 39.8594 69.4202 39.9107 69.2683C39.92 69.2345 39.9293 69.2036 39.9386 69.1755C39.9526 69.1417 39.9643 69.1108 39.9736 69.0827H38.8485C38.9417 68.8014 39.0209 68.5595 39.0861 68.357C39.156 68.1545 39.2142 67.9857 39.2608 67.8507C39.3121 67.6932 39.3936 67.5695 39.5054 67.4795C39.6219 67.3838 39.7476 67.336 39.8827 67.336H42.4053L41.2384 70.7955C41.1266 71.1331 40.9472 71.4031 40.7003 71.6056C40.4581 71.8025 40.1855 71.9009 39.8827 71.9009H34.3065C34.7071 70.714 35.0635 69.6536 35.3756 68.7198L36.4517 65.5303Z" fill="white"/>
<path d="M44.0608 64.9903C44.1121 64.8328 44.1959 64.709 44.3124 64.619C44.4288 64.5234 44.5569 64.4756 44.6967 64.4756H46.1152L45.2487 67.0491H47.7993C47.8878 67.0491 47.967 67.021 48.0369 66.9648C48.1067 66.9085 48.158 66.8326 48.1906 66.7369L48.7846 64.9819C48.8358 64.8244 48.9173 64.7006 49.0291 64.6106C49.1456 64.5206 49.2714 64.4756 49.4065 64.4756H50.804L49.644 67.9267C49.5322 68.2642 49.3529 68.5342 49.106 68.7367C48.8591 68.9336 48.5866 69.032 48.2884 69.032H47.0656L46.2829 71.344C46.2317 71.5015 46.1478 71.6281 46.0314 71.7237C45.9196 71.8137 45.7961 71.8587 45.661 71.8587H44.2355L45.1858 69.032H42.6982L44.0608 64.9903Z" fill="white"/>
<path d="M49.4958 70.5593C49.5796 70.3062 49.6961 70.0755 49.8452 69.8674C49.9942 69.6592 50.1666 69.4821 50.3623 69.3358L54.0937 66.6441H50.9283L51.2777 65.6063C51.3336 65.4431 51.4058 65.2941 51.4943 65.1591C51.5874 65.024 51.6923 64.9087 51.8087 64.8131C51.9298 64.7175 52.058 64.6443 52.1931 64.5937C52.3328 64.5431 52.4749 64.5178 52.6193 64.5178H58.2165L57.6854 66.0872C57.5643 66.4641 57.3594 66.751 57.0705 66.9479L53.1644 69.7746H56.3298L55.9874 70.7955C55.8756 71.1331 55.6963 71.4031 55.4494 71.6056C55.2025 71.8025 54.9299 71.9009 54.6318 71.9009H49.0416L49.4958 70.5593Z" fill="white"/>
<path d="M63.2416 65.6231C63.3534 65.2856 63.5328 65.0184 63.7797 64.8215C64.0266 64.619 64.2991 64.5178 64.5972 64.5178H70.2014L68.7969 68.6861C68.6851 69.0236 68.5057 69.2936 68.2588 69.4961C68.0119 69.693 67.7394 69.7914 67.4413 69.7914H67.0779L67.7906 71.9009H65.9039L65.1982 69.7914H63.7377L63.1927 71.3946C63.1414 71.5465 63.0576 71.6703 62.9411 71.7659C62.8293 71.8559 62.7059 71.9009 62.5708 71.9009H61.1453L63.2416 65.6231ZM64.4575 67.6482H67.0919C67.1431 67.6482 67.1897 67.6313 67.2316 67.5976C67.2782 67.5638 67.3108 67.5188 67.3295 67.4626L67.602 66.6526H64.9676C64.8511 66.6526 64.7696 66.7172 64.723 66.8466L64.4575 67.6482Z" fill="white"/>
<path d="M68.6426 71.9009C68.6426 71.9009 68.6728 71.8109 68.7334 71.6309C68.794 71.4453 68.8755 71.2034 68.978 70.9052C69.0758 70.6071 69.1899 70.2696 69.3204 69.8927C69.4461 69.5102 69.5766 69.1192 69.7117 68.7198C69.8468 68.3204 69.9772 67.9323 70.103 67.5554C70.2334 67.1729 70.3476 66.8326 70.4454 66.5344C70.5479 66.2307 70.6294 65.9888 70.69 65.8088C70.7552 65.6231 70.7878 65.5303 70.7878 65.5303C70.9089 65.2209 71.0859 64.9762 71.3189 64.7962C71.5565 64.6106 71.8173 64.5178 72.1015 64.5178H77.6987L77.3493 65.5472C77.2375 65.8791 77.0582 66.1463 76.8113 66.3488C76.5644 66.5457 76.2918 66.6441 75.9937 66.6441H72.5068C72.3484 66.6441 72.2366 66.7341 72.1714 66.9141L72.0246 67.336H75.0084L74.5891 68.568C74.5379 68.7255 74.4541 68.852 74.3376 68.9477C74.2258 69.0377 74.1 69.0827 73.9602 69.0827H71.6822C71.5238 69.0827 71.412 69.1727 71.3468 69.3527L71.2071 69.7746H75.9168L75.5744 70.7955C75.4626 71.1331 75.2833 71.4031 75.0364 71.6056C74.7895 71.8025 74.5169 71.9009 74.2188 71.9009H68.6426Z" fill="white"/>
<path d="M78.2385 65.6231C78.3503 65.2856 78.5273 65.0184 78.7695 64.8215C79.0164 64.619 79.2913 64.5178 79.5941 64.5178H85.1913L83.7868 68.6861C83.6749 69.0236 83.4956 69.2936 83.2487 69.4961C83.0064 69.693 82.7339 69.7914 82.4311 69.7914H78.7276L78.1895 71.3946C78.1383 71.5465 78.0544 71.6703 77.938 71.7659C77.8262 71.8559 77.7027 71.9009 77.5676 71.9009H76.1351L78.2385 65.6231ZM82.0817 67.6482C82.133 67.6482 82.1796 67.6313 82.2215 67.5976C82.2681 67.5638 82.3007 67.5188 82.3193 67.4626L82.5918 66.6526H79.9575C79.8456 66.6526 79.7664 66.7172 79.7199 66.8466L79.4473 67.6482H82.0817Z" fill="white"/>
<path d="M85.6801 65.5303C85.8012 65.2209 85.9782 64.9762 86.2111 64.7962C86.4487 64.6106 86.7096 64.5178 86.9938 64.5178H87.8742L86.0923 69.7746H88.7337C88.8036 69.7746 88.8665 69.7521 88.9224 69.7071C88.9829 69.6564 89.0272 69.5889 89.0552 69.5046L90.5715 65.024C90.6227 64.8722 90.7043 64.7512 90.8161 64.6612C90.9325 64.5656 91.0583 64.5178 91.1934 64.5178H92.591L90.4737 70.7955C90.3619 71.1331 90.1825 71.4031 89.9356 71.6056C89.6887 71.8025 89.4162 71.9009 89.118 71.9009H83.5348C83.9354 70.714 84.2918 69.6564 84.6039 68.7283C84.739 68.3289 84.8695 67.9379 84.9953 67.5554C85.1257 67.1729 85.2422 66.8326 85.3446 66.5344C85.4471 66.2363 85.5287 65.9944 85.5892 65.8088C85.6498 65.6231 85.6801 65.5303 85.6801 65.5303Z" fill="white"/>
<path d="M93.0795 65.5303C93.196 65.2209 93.373 64.9762 93.6106 64.7962C93.8482 64.6106 94.109 64.5178 94.3932 64.5178H99.9834L99.075 67.2095C98.9725 67.5132 98.8095 67.7551 98.5859 67.9351C98.3623 68.1151 98.1154 68.2051 97.8452 68.2051H97.7403C97.8615 68.2051 97.9686 68.2389 98.0618 68.3064C98.1596 68.3739 98.2365 68.4611 98.2924 68.568C98.3529 68.6692 98.3902 68.7873 98.4042 68.9223C98.4182 69.0517 98.4042 69.1839 98.3623 69.3189L97.8661 70.7955C97.7543 71.1331 97.575 71.4031 97.3281 71.6056C97.0812 71.8025 96.8086 71.9009 96.5105 71.9009H90.9273C91.3279 70.714 91.6866 69.6536 92.0034 68.7198L93.0795 65.5303ZM93.4918 69.7746H96.0982C96.1169 69.7746 96.1378 69.7746 96.1611 69.7746C96.1844 69.7689 96.2054 69.7605 96.224 69.7493C96.238 69.7436 96.2566 69.7324 96.2799 69.7155C96.3079 69.693 96.3288 69.6733 96.3428 69.6564C96.3708 69.6283 96.3964 69.5861 96.4197 69.5299C96.4243 69.5242 96.4267 69.5214 96.4267 69.5214C96.4267 69.5158 96.429 69.5102 96.4336 69.5046L96.5734 69.0827H93.9739C93.8156 69.0827 93.7037 69.1727 93.6385 69.3527L93.4918 69.7746ZM96.9228 67.336H96.9717C96.9857 67.336 96.9973 67.3332 97.0066 67.3276C97.0206 67.322 97.0323 67.3163 97.0416 67.3107C97.0509 67.3051 97.0602 67.3023 97.0695 67.3023C97.0788 67.2966 97.0882 67.291 97.0975 67.2854C97.1208 67.2741 97.1487 67.2488 97.1813 67.2095C97.2139 67.1645 97.2349 67.1279 97.2442 67.0998C97.2442 67.0885 97.2442 67.0829 97.2442 67.0829C97.2489 67.0773 97.2512 67.0716 97.2512 67.066L97.3979 66.6441H94.7915C94.6378 66.6441 94.5283 66.7341 94.4631 66.9141L94.3163 67.336H96.9228Z" fill="white"/>
<path d="M98.5317 71.9009L100.642 65.6231C100.754 65.2856 100.933 65.0184 101.18 64.8215C101.427 64.619 101.699 64.5178 101.998 64.5178H102.892L101.124 69.7661H105.827L105.484 70.7955C105.373 71.1331 105.193 71.4031 104.946 71.6056C104.7 71.8025 104.425 71.9009 104.122 71.9009H98.5317Z" fill="white"/>
<path d="M107.971 65.6231C108.083 65.2856 108.262 65.0184 108.509 64.8215C108.756 64.619 109.028 64.5178 109.327 64.5178H110.221L108.111 70.7955C107.999 71.1331 107.82 71.4031 107.573 71.6056C107.326 71.8025 107.051 71.9009 106.748 71.9009H105.854L107.971 65.6231Z" fill="white"/>
<path d="M108.563 71.9009C108.563 71.9009 108.593 71.8109 108.654 71.6309C108.714 71.4453 108.796 71.2034 108.898 70.9052C108.996 70.6071 109.11 70.2696 109.241 69.8927C109.367 69.5102 109.497 69.1192 109.632 68.7198C109.767 68.3204 109.898 67.9323 110.023 67.5554C110.154 67.1729 110.268 66.8326 110.366 66.5344C110.468 66.2307 110.55 65.9888 110.61 65.8088C110.676 65.6231 110.708 65.5303 110.708 65.5303C110.829 65.2209 111.006 64.9762 111.239 64.7962C111.477 64.6106 111.738 64.5178 112.022 64.5178H117.619L117.27 65.5472C117.158 65.8791 116.979 66.1463 116.732 66.3488C116.485 66.5457 116.212 66.6441 115.914 66.6441H112.427C112.269 66.6441 112.157 66.7341 112.092 66.9141L111.127 69.7746H115.837L115.495 70.7955C115.383 71.1331 115.204 71.4031 114.957 71.6056C114.71 71.8025 114.437 71.9009 114.139 71.9009H108.563Z" fill="white"/>
</svg>
